<svg xmlns="http://www.w3.org/2000/svg" viewBox="0 0 64 64" fill="none">
  <rect width="64" height="64" rx="18" fill="#2F7D32"/>
  <path
    d="M41.708 19.795c-6.155 1.355-11.706 5.415-15.22 11.09-2.168 3.498-3.344 7.332-3.488 11.364-.03.833-.011 1.523.046 1.657.112.295.538.546.919.546.592 0 1.092-.502 1.092-1.097 0-.261.027-.987.06-1.612.468-8.528 5.637-15.855 13.487-19.134 1.027-.429 2.788-.993 3.566-1.142.551-.106.911-.524.911-1.058 0-.33-.094-.55-.342-.798-.397-.395-.653-.422-1.031-.116z"
    fill="#FFF7E8"
  />
  <path
    d="M26.315 20.531c-.472.142-.73.493-.731.997 0 .219.162.838.48 1.83.562 1.752 1.106 2.89 1.966 4.106l.61.86-.228.336c-.43.634-1.172 2.173-1.512 3.136-.665 1.883-.91 3.377-.913 5.566-.002 1.847.036 2.319.32 4.028.323 1.95.388 2.135.855 2.408.381.225.785.206 1.125-.052.403-.306.474-.686.292-1.558-.67-3.194-.625-6.71.123-9.616.17-.665.743-2.206.942-2.537.086-.143.176-.098 1.147.567 2.645 1.812 5.681 2.998 8.802 3.438.953.134 2.889.141 3.24.012.323-.123.594-.53.595-.893.002-.427-.246-.82-.622-.986-.175-.078-.879-.189-1.564-.248-3.804-.324-7.217-1.699-10.213-4.115-1.441-1.163-2.977-3.279-3.84-5.29-.351-.816-.733-2.104-.733-2.472 0-.29-.311-.699-.615-.81-.304-.11-.386-.108-.918.051z"
    fill="#FFF7E8"
  />
</svg>
